<?xml version="1.0" encoding="UTF-8"?>
<svg version="1.1" xmlns="http://www.w3.org/2000/svg" width="2500" height="2500">
<path d="M0 0 C1.85159324 -0.00702636 3.70318625 -0.01411313 5.55477905 -0.02125549 C11.43886671 -0.04064296 17.32291486 -0.04569009 23.20703125 -0.046875 C24.21121471 -0.04731686 25.21539818 -0.04775871 26.25001144 -0.04821396 C57.6076935 -0.0554447 88.76886904 0.37439546 120.01953125 3.203125 C122.04915305 3.38184266 124.07877547 3.56055341 126.10839844 3.73925781 C219.83226302 12.10999214 311.65105865 31.37793935 527.01953125 112.203125 C527.63425293 112.49405029 528.24897461 112.78497559 528.88232422 113.0847168 C557.55394839 126.65479642 585.63753834 141.14043195 612.90722656 157.36376953 C616.30503341 159.37185525 619.71893131 161.35042614 623.13671875 163.32421875 C638.41601937 172.16299878 653.33663272 181.39387493 668.01953125 191.203125 C669.41609368 192.12716866 670.81318335 193.05041624 672.2109375 193.97265625 C687.40900758 204.0193968 702.30159472 214.46682282 717.01953125 225.203125 C718.2101416 226.0684082 718.2101416 226.0684082 719.42480469 226.95117188 C729.56663309 234.32630623 739.50786001 241.88068934 749.24755859 249.77832031 C751.60592458 251.67463113 753.99233345 253.53362393 756.38037109 255.39233398 C762.14137527 259.87692414 767.78181629 264.47376462 773.33203125 269.21679688 C776.72876466 272.11938447 780.16729987 274.95917868 783.64453125 277.765625 C788.40473178 281.63891772 792.94757909 285.71072492 797.46484375 289.86328125 C799.6465094 291.86147348 801.84964434 293.82461389 804.08203125 295.765625 C815.60134322 305.79255648 827.09925778 315.99476003 837.7265625 326.97265625 C839.66319683 328.85650327 841.63695325 330.61443532 843.68359375 332.375 C848.53067969 336.58533286 853.05466701 341.09158145 857.58203125 345.640625 C858.79922852 346.85202148 858.79922852 346.85202148 860.04101562 348.08789062 C864.34653975 352.40036475 868.47582678 356.79462192 872.44897461 361.41430664 C874.69380954 363.97110837 877.08490522 366.32578429 879.51953125 368.703125 C883.20442088 372.33871636 886.72689029 376.04925467 890.0859375 379.98828125 C892.11849928 382.31648838 894.21353196 384.57472161 896.32299805 386.83300781 C901.37536459 392.24250139 906.18168428 397.75842545 910.81640625 403.53515625 C913.08880943 406.28702038 915.46647956 408.90050643 917.89453125 411.515625 C922.13750164 416.12583857 926.01829788 420.92239458 929.84545898 425.87475586 C932.94462906 429.87352728 936.15310912 433.74754216 939.45703125 437.578125 C944.56245863 443.52794299 949.25775941 449.7404109 953.921875 456.0390625 C956.51861037 459.54477887 959.16427307 463.00971556 961.828125 466.46459961 C1018.96027712 540.59425202 1066.6018966 623.85813288 1195.22265625 1094.5078125 C1195.28908325 1095.37836777 1195.35551025 1096.24892303 1195.4239502 1097.14585876 C1196.63465272 1113.81499152 1197.18305155 1130.47372501 1197.22265625 1147.18359375 C1197.22968261 1149.03518699 1197.23676938 1150.88678 1197.24391174 1152.7383728 C1197.26329921 1158.62246046 1197.26834634 1164.50650861 1197.26953125 1170.390625 C1197.26997311 1171.39480846 1197.27041496 1172.39899193 1197.27087021 1173.43360519 C1197.27810104 1204.79168251 1196.84508378 1235.95192233 1194.01953125 1267.203125 C1193.84076634 1269.23811375 1193.66205693 1271.27310737 1193.48339844 1273.30810547 C1185.28533357 1365.38512484 1166.71985633 1456.18090179 1100.01953125 1641.203125 C1099.74085205 1641.83011292 1099.46217285 1642.45710083 1099.17504883 1643.10308838 C1081.37071591 1683.14539686 1062.2688684 1722.5146654 1039.81591797 1760.18115234 C1037.89268713 1763.4165086 1035.98815801 1766.66240608 1034.0859375 1769.91015625 C1022.65837983 1789.39239379 1010.71806885 1808.52254794 998.01953125 1827.203125 C997.5910791 1827.83347656 997.16262695 1828.46382812 996.72119141 1829.11328125 C982.23211539 1850.38436548 967.37296964 1871.41084593 951.33300781 1891.546875 C950.00849212 1893.21704497 948.69587409 1894.8958943 947.38671875 1896.578125 C936.78399588 1910.19272024 925.75856942 1923.44870766 914.47851562 1936.50585938 C913.00917577 1938.21517174 911.55189253 1939.93407699 910.09765625 1941.65625 C903.69601928 1949.22085633 897.06572398 1956.52268626 890.26953125 1963.734375 C887.57398332 1966.59800559 884.94031502 1969.50949046 882.33203125 1972.453125 C878.32814084 1976.94165764 874.09530226 1981.16821336 869.79296875 1985.3671875 C867.67398629 1987.53392168 865.68642312 1989.7122753 863.7109375 1992.00390625 C859.85610268 1996.45227658 855.75408564 2000.61610196 851.58203125 2004.765625 C850.5137207 2005.83973633 850.5137207 2005.83973633 849.42382812 2006.93554688 C845.37067429 2010.98133804 841.21181702 2014.82772103 836.87475586 2018.56616211 C834.1283568 2020.9894554 831.57520979 2023.58191624 829.01953125 2026.203125 C825.2021415 2030.06756949 821.33918272 2033.78314138 817.19921875 2037.3046875 C814.8818019 2039.32308282 812.63730565 2041.40675483 810.3918457 2043.50439453 C804.98182083 2048.55772308 799.46503875 2053.36462981 793.6875 2058 C790.93563587 2060.27240318 788.32214982 2062.65007331 785.70703125 2065.078125 C781.09681768 2069.32109539 776.30026167 2073.20189163 771.34790039 2077.02905273 C767.34912897 2080.12822281 763.47511409 2083.33670287 759.64453125 2086.640625 C753.69471326 2091.74605238 747.48224535 2096.44135316 741.18359375 2101.10546875 C737.67787738 2103.70220412 734.21294069 2106.34786682 730.75805664 2109.01171875 C657.20970702 2165.69585745 574.92399097 2212.41046644 448.01953125 2266.203125 C446.91149139 2266.62951263 446.91149139 2266.62951263 445.78106689 2267.06451416 C360.23037098 2299.91469998 270.86209884 2322.897293 102.46875 2342.44140625 C101.62040085 2342.50466095 100.7720517 2342.56791565 99.897995 2342.63308716 C83.28673177 2343.8092762 66.68921345 2344.36678684 50.0390625 2344.40625 C48.18746926 2344.41327636 46.33587625 2344.42036313 44.48428345 2344.42750549 C38.60019579 2344.44689296 32.71614764 2344.45194009 26.83203125 2344.453125 C25.32575605 2344.45378778 25.32575605 2344.45378778 23.78905106 2344.45446396 C-6.60806339 2344.4614732 -36.86585168 2344.1807131 -67.16326904 2341.45635986 C-70.10455287 2341.19197122 -73.04658862 2340.93730244 -75.98876953 2340.68310547 C-168.92269221 2332.54297511 -260.5127913 2313.37167251 -443.98046875 2247.203125 C-444.60274353 2246.92680237 -445.22501831 2246.65047974 -445.8661499 2246.36578369 C-477.83902127 2232.16576908 -509.32796613 2217.07906648 -539.98046875 2200.203125 C-541.0281543 2199.63029785 -542.07583984 2199.0574707 -543.15527344 2198.46728516 C-571.86221996 2182.7523592 -599.92350565 2165.61689155 -626.98046875 2147.203125 C-627.66109375 2146.74115723 -628.34171875 2146.27918945 -629.04296875 2145.80322266 C-645.28423536 2134.7729275 -661.34538691 2123.55382601 -676.99658203 2111.69873047 C-678.98245853 2110.20162495 -680.97771974 2108.71802011 -682.9765625 2107.23828125 C-690.49926813 2101.66023309 -697.868156 2095.93864403 -705.10791016 2089.99731445 C-709.4737635 2086.41503444 -713.89327712 2082.91435995 -718.35546875 2079.453125 C-723.28447509 2075.61777415 -727.96825296 2071.60229344 -732.56640625 2067.37109375 C-735.07570747 2065.11759508 -737.66288501 2063.00151354 -740.29296875 2060.890625 C-745.75144123 2056.47591142 -750.87124237 2051.75564133 -756 2046.96875 C-758.24645564 2044.87401576 -760.52520303 2042.82982831 -762.85546875 2040.828125 C-771.5843637 2033.26927342 -780.01099113 2025.29658459 -788.09594727 2017.05517578 C-789.87471908 2015.30705259 -791.70662481 2013.68602169 -793.60546875 2012.0703125 C-798.46387028 2007.84500761 -803.0026264 2003.32770881 -807.54296875 1998.765625 C-808.35443359 1997.95802734 -809.16589844 1997.15042969 -810.00195312 1996.31835938 C-814.30747725 1992.00588525 -818.43676428 1987.61162808 -822.40991211 1982.99194336 C-824.65474704 1980.43514163 -827.04584272 1978.08046571 -829.48046875 1975.703125 C-833.16535838 1972.06753364 -836.68782779 1968.35699533 -840.046875 1964.41796875 C-842.07943678 1962.08976162 -844.17446946 1959.83152839 -846.28393555 1957.57324219 C-851.33630209 1952.16374861 -856.14262178 1946.64782455 -860.77734375 1940.87109375 C-863.04974693 1938.11922962 -865.42741706 1935.50574357 -867.85546875 1932.890625 C-872.09843914 1928.28041143 -875.97923538 1923.48385542 -879.80639648 1918.53149414 C-882.90556656 1914.53272272 -886.11404662 1910.65870784 -889.41796875 1906.828125 C-894.52339613 1900.87830701 -899.21869691 1894.6658391 -903.8828125 1888.3671875 C-906.47954787 1884.86147113 -909.12521057 1881.39653444 -911.7890625 1877.94165039 C-968.4732012 1804.39330077 -1015.18781019 1722.10758472 -1068.98046875 1595.203125 C-1069.26472717 1594.46443176 -1069.5489856 1593.72573853 -1069.84185791 1592.96466064 C-1101.77242439 1509.80890016 -1124.40697915 1423.03191004 -1143.23046875 1276.078125 C-1143.30760101 1275.23938843 -1143.38473328 1274.40065186 -1143.46420288 1273.53649902 C-1144.04799597 1267.09720001 -1144.53277079 1260.65322343 -1144.98046875 1254.203125 C-1145.11127335 1252.35980591 -1145.11127335 1252.35980591 -1145.24472046 1250.47924805 C-1147.06799351 1224.26581528 -1147.32493766 1198.08477334 -1147.29614258 1171.81542969 C-1147.29152985 1167.26194327 -1147.29838613 1162.70872522 -1147.31665039 1158.15527344 C-1147.67336673 1068.28683794 -1137.29576343 979.52849598 -1115.98046875 892.203125 C-1115.65280584 890.85108057 -1115.32516819 889.49903001 -1114.99755859 888.14697266 C-1092.75093807 797.0291468 -1057.19864285 709.00167004 -1006.29736328 613.55615234 C-1004.897641 611.05512836 -1003.54251497 608.5335857 -1002.1953125 606.00390625 C-994.95114941 592.43124031 -987.07927868 579.29237778 -979.02993774 566.18913269 C-976.32403698 561.77935205 -973.66847861 557.34143034 -971.02832031 552.89208984 C-966.07893299 544.55687904 -960.91895704 536.42588002 -955.46923828 528.41064453 C-953.71506176 525.80958449 -951.98591461 523.19267384 -950.2578125 520.57421875 C-942.61525409 509.00677831 -934.83655223 497.58407198 -926.61328125 486.42138672 C-924.88512686 484.07359802 -923.16677743 481.71883048 -921.44921875 479.36328125 C-914.89418545 470.39407931 -908.21553542 461.54850662 -901.29394531 452.859375 C-899.96942962 451.18920503 -898.65681159 449.5103557 -897.34765625 447.828125 C-886.74493338 434.21352976 -875.71950692 420.95754234 -864.43945312 407.90039062 C-862.97011327 406.19107826 -861.51283003 404.47217301 -860.05859375 402.75 C-853.65815218 395.18680624 -847.02909473 387.88631137 -840.234375 380.67578125 C-837.51751405 377.78945973 -834.86146428 374.8557152 -832.23046875 371.890625 C-828.49021914 367.69848649 -824.56109351 363.737807 -820.53515625 359.8203125 C-818.52274064 357.75866348 -816.64167916 355.67725485 -814.765625 353.49609375 C-810.57180463 348.66142502 -806.07766466 344.15370997 -801.54296875 339.640625 C-800.73537109 338.82916016 -799.92777344 338.01769531 -799.09570312 337.18164062 C-794.783229 332.8761165 -790.38897183 328.74682947 -785.76928711 324.77368164 C-783.21248538 322.52884671 -780.85780946 320.13775103 -778.48046875 317.703125 C-774.84487739 314.01823537 -771.13433908 310.49576596 -767.1953125 307.13671875 C-764.86710537 305.10415697 -762.60887214 303.00912429 -760.35058594 300.8996582 C-754.94109236 295.84729166 -749.4251683 291.04097197 -743.6484375 286.40625 C-740.89657337 284.13384682 -738.28308732 281.75617669 -735.66796875 279.328125 C-731.05775518 275.08515461 -726.26119917 271.20435837 -721.30883789 267.37719727 C-717.31006647 264.27802719 -713.43605159 261.06954713 -709.60546875 257.765625 C-703.65565076 252.66019762 -697.44318285 247.96489684 -691.14453125 243.30078125 C-687.63881488 240.70404588 -684.17387819 238.05838318 -680.71899414 235.39453125 C-606.52667443 178.21408108 -523.4288826 131.08127951 -65.10546875 2.953125 C-63.51857742 2.82836288 -63.51857742 2.82836288 -61.89962769 2.70108032 C-58.82537308 2.46230472 -55.75073103 2.22963762 -52.67578125 2 C-51.80519577 1.93356796 -50.93461029 1.86713593 -50.03764343 1.7986908 C-33.36853493 0.5880437 -16.70984185 0.03960464 0 0 Z " fill="#AB47BC" transform="translate(1224.98046875,77.796875)"/>
<path d="M0 0 C1.85159324 -0.00702636 3.70318625 -0.01411313 5.55477905 -0.02125549 C11.43886671 -0.04064296 17.32291486 -0.04569009 23.20703125 -0.046875 C24.21121471 -0.04731686 25.21539818 -0.04775871 26.25001144 -0.04821396 C57.6076935 -0.0554447 88.76886904 0.37439546 120.01953125 3.203125 C122.04915305 3.38184266 124.07877547 3.56055341 126.10839844 3.73925781 C219.83226302 12.10999214 311.65105865 31.37793935 527.01953125 112.203125 C527.63425293 112.49405029 528.24897461 112.78497559 528.88232422 113.0847168 C557.55394839 126.65479642 585.63753834 141.14043195 612.90722656 157.36376953 C616.30503341 159.37185525 619.71893131 161.35042614 623.13671875 163.32421875 C638.41601937 172.16299878 653.33663272 181.39387493 668.01953125 191.203125 C669.41609368 192.12716866 670.81318335 193.05041624 672.2109375 193.97265625 C687.40900758 204.0193968 702.30159472 214.46682282 717.01953125 225.203125 C718.2101416 226.0684082 718.2101416 226.0684082 719.42480469 226.95117188 C729.56663309 234.32630623 739.50786001 241.88068934 749.24755859 249.77832031 C751.60592458 251.67463113 753.99233345 253.53362393 756.38037109 255.39233398 C762.14137527 259.87692414 767.78181629 264.47376462 773.33203125 269.21679688 C776.72876466 272.11938447 780.16729987 274.95917868 783.64453125 277.765625 C788.40473178 281.63891772 792.94757909 285.71072492 797.46484375 289.86328125 C799.6465094 291.86147348 801.84964434 293.82461389 804.08203125 295.765625 C815.60134322 305.79255648 827.09925778 315.99476003 837.7265625 326.97265625 C839.66319683 328.85650327 841.63695325 330.61443532 843.68359375 332.375 C848.53067969 336.58533286 853.05466701 341.09158145 857.58203125 345.640625 C858.79922852 346.85202148 858.79922852 346.85202148 860.04101562 348.08789062 C864.34653975 352.40036475 868.47582678 356.79462192 872.44897461 361.41430664 C874.69380954 363.97110837 877.08490522 366.32578429 879.51953125 368.703125 C883.20442088 372.33871636 886.72689029 376.04925467 890.0859375 379.98828125 C892.11849928 382.31648838 894.21353196 384.57472161 896.32299805 386.83300781 C901.37536459 392.24250139 906.18168428 397.75842545 910.81640625 403.53515625 C913.08880943 406.28702038 915.46647956 408.90050643 917.89453125 411.515625 C922.13750164 416.12583857 926.01829788 420.92239458 929.84545898 425.87475586 C932.94462906 429.87352728 936.15310912 433.74754216 939.45703125 437.578125 C944.56245863 443.52794299 949.25775941 449.7404109 953.921875 456.0390625 C956.51861037 459.54477887 959.16427307 463.00971556 961.828125 466.46459961 C1018.96027712 540.59425202 1066.6018966 623.85813288 1195.22265625 1094.5078125 C1195.28908325 1095.37836777 1195.35551025 1096.24892303 1195.4239502 1097.14585876 C1196.63465272 1113.81499152 1197.18305155 1130.47372501 1197.22265625 1147.18359375 C1197.22968261 1149.03518699 1197.23676938 1150.88678 1197.24391174 1152.7383728 C1197.26329921 1158.62246046 1197.26834634 1164.50650861 1197.26953125 1170.390625 C1197.26997311 1171.39480846 1197.27041496 1172.39899193 1197.27087021 1173.43360519 C1197.27810104 1204.79168251 1196.84508378 1235.95192233 1194.01953125 1267.203125 C1193.84076634 1269.23811375 1193.66205693 1271.27310737 1193.48339844 1273.30810547 C1185.28533357 1365.38512484 1166.71985633 1456.18090179 1100.01953125 1641.203125 C1099.74085205 1641.83011292 1099.46217285 1642.45710083 1099.17504883 1643.10308838 C1081.37071591 1683.14539686 1062.2688684 1722.5146654 1039.81591797 1760.18115234 C1037.89268713 1763.4165086 1035.98815801 1766.66240608 1034.0859375 1769.91015625 C1022.65837983 1789.39239379 1010.71806885 1808.52254794 998.01953125 1827.203125 C997.5910791 1827.83347656 997.16262695 1828.46382812 996.72119141 1829.11328125 C982.23211539 1850.38436548 967.37296964 1871.41084593 951.33300781 1891.546875 C950.00849212 1893.21704497 948.69587409 1894.8958943 947.38671875 1896.578125 C936.78399588 1910.19272024 925.75856942 1923.44870766 914.47851562 1936.50585938 C913.00917577 1938.21517174 911.55189253 1939.93407699 910.09765625 1941.65625 C903.69601928 1949.22085633 897.06572398 1956.52268626 890.26953125 1963.734375 C887.57398332 1966.59800559 884.94031502 1969.50949046 882.33203125 1972.453125 C878.32814084 1976.94165764 874.09530226 1981.16821336 869.79296875 1985.3671875 C867.67398629 1987.53392168 865.68642312 1989.7122753 863.7109375 1992.00390625 C859.85610268 1996.45227658 855.75408564 2000.61610196 851.58203125 2004.765625 C850.5137207 2005.83973633 850.5137207 2005.83973633 849.42382812 2006.93554688 C845.37067429 2010.98133804 841.21181702 2014.82772103 836.87475586 2018.56616211 C834.1283568 2020.9894554 831.57520979 2023.58191624 829.01953125 2026.203125 C825.2021415 2030.06756949 821.33918272 2033.78314138 817.19921875 2037.3046875 C814.8818019 2039.32308282 812.63730565 2041.40675483 810.3918457 2043.50439453 C804.98182083 2048.55772308 799.46503875 2053.36462981 793.6875 2058 C790.93563587 2060.27240318 788.32214982 2062.65007331 785.70703125 2065.078125 C781.09681768 2069.32109539 776.30026167 2073.20189163 771.34790039 2077.02905273 C767.34912897 2080.12822281 763.47511409 2083.33670287 759.64453125 2086.640625 C753.69471326 2091.74605238 747.48224535 2096.44135316 741.18359375 2101.10546875 C737.67787738 2103.70220412 734.21294069 2106.34786682 730.75805664 2109.01171875 C657.20970702 2165.69585745 574.92399097 2212.41046644 448.01953125 2266.203125 C446.91149139 2266.62951263 446.91149139 2266.62951263 445.78106689 2267.06451416 C360.23037098 2299.91469998 270.86209884 2322.897293 102.46875 2342.44140625 C101.62040085 2342.50466095 100.7720517 2342.56791565 99.897995 2342.63308716 C83.28673177 2343.8092762 66.68921345 2344.36678684 50.0390625 2344.40625 C48.18746926 2344.41327636 46.33587625 2344.42036313 44.48428345 2344.42750549 C38.60019579 2344.44689296 32.71614764 2344.45194009 26.83203125 2344.453125 C25.32575605 2344.45378778 25.32575605 2344.45378778 23.78905106 2344.45446396 C-6.60806339 2344.4614732 -36.86585168 2344.1807131 -67.16326904 2341.45635986 C-70.10455287 2341.19197122 -73.04658862 2340.93730244 -75.98876953 2340.68310547 C-168.92269221 2332.54297511 -260.5127913 2313.37167251 -443.98046875 2247.203125 C-444.60274353 2246.92680237 -445.22501831 2246.65047974 -445.8661499 2246.36578369 C-477.83902127 2232.16576908 -509.32796613 2217.07906648 -539.98046875 2200.203125 C-541.0281543 2199.63029785 -542.07583984 2199.0574707 -543.15527344 2198.46728516 C-571.86221996 2182.7523592 -599.92350565 2165.61689155 -626.98046875 2147.203125 C-627.66109375 2146.74115723 -628.34171875 2146.27918945 -629.04296875 2145.80322266 C-645.28423536 2134.7729275 -661.34538691 2123.55382601 -676.99658203 2111.69873047 C-678.98245853 2110.20162495 -680.97771974 2108.71802011 -682.9765625 2107.23828125 C-690.49926813 2101.66023309 -697.868156 2095.93864403 -705.10791016 2089.99731445 C-709.4737635 2086.41503444 -713.89327712 2082.91435995 -718.35546875 2079.453125 C-723.28447509 2075.61777415 -727.96825296 2071.60229344 -732.56640625 2067.37109375 C-735.07570747 2065.11759508 -737.66288501 2063.00151354 -740.29296875 2060.890625 C-745.75144123 2056.47591142 -750.87124237 2051.75564133 -756 2046.96875 C-758.24645564 2044.87401576 -760.52520303 2042.82982831 -762.85546875 2040.828125 C-771.5843637 2033.26927342 -780.01099113 2025.29658459 -788.09594727 2017.05517578 C-789.87471908 2015.30705259 -791.70662481 2013.68602169 -793.60546875 2012.0703125 C-798.46387028 2007.84500761 -803.0026264 2003.32770881 -807.54296875 1998.765625 C-808.35443359 1997.95802734 -809.16589844 1997.15042969 -810.00195312 1996.31835938 C-814.30747725 1992.00588525 -818.43676428 1987.61162808 -822.40991211 1982.99194336 C-824.65474704 1980.43514163 -827.04584272 1978.08046571 -829.48046875 1975.703125 C-833.16535838 1972.06753364 -836.68782779 1968.35699533 -840.046875 1964.41796875 C-842.07943678 1962.08976162 -844.17446946 1959.83152839 -846.28393555 1957.57324219 C-851.33630209 1952.16374861 -856.14262178 1946.64782455 -860.77734375 1940.87109375 C-863.04974693 1938.11922962 -865.42741706 1935.50574357 -867.85546875 1932.890625 C-872.09843914 1928.28041143 -875.97923538 1923.48385542 -879.80639648 1918.53149414 C-882.90556656 1914.53272272 -886.11404662 1910.65870784 -889.41796875 1906.828125 C-894.52339613 1900.87830701 -899.21869691 1894.6658391 -903.8828125 1888.3671875 C-906.47954787 1884.86147113 -909.12521057 1881.39653444 -911.7890625 1877.94165039 C-968.4732012 1804.39330077 -1015.18781019 1722.10758472 -1068.98046875 1595.203125 C-1069.26472717 1594.46443176 -1069.5489856 1593.72573853 -1069.84185791 1592.96466064 C-1101.77242439 1509.80890016 -1124.40697915 1423.03191004 -1146.98046875 1190.203125 C-1146.65046875 1190.203125 -1146.32046875 1190.203125 -1145.98046875 1190.203125 C-1145.92101074 1191.41645508 -1145.92101074 1191.41645508 -1145.86035156 1192.65429688 C-1144.89393512 1211.88651795 -1143.58385949 1231.07571892 -1141.98046875 1250.265625 C-1141.85508728 1251.77938721 -1141.85508728 1251.77938721 -1141.72717285 1253.32373047 C-1140.29131456 1270.58211523 -1138.64689061 1287.77786056 -1135.95703125 1304.890625 C-1135.28507244 1309.20393293 -1134.63292902 1313.51981486 -1133.99046326 1317.83758545 C-1131.12670475 1337.06918321 -1128.08250238 1356.18988002 -1123.98046875 1375.203125 C-1123.45173458 1377.7057105 -1122.92309405 1380.20831579 -1122.39453125 1382.7109375 C-1117.11710792 1407.52843445 -1111.39924062 1432.2909008 -1103.80395508 1456.51269531 C-1102.9439799 1459.32233849 -1102.11854085 1462.1412741 -1101.29708862 1464.96238708 C-1088.86433544 1507.62304416 -1073.76681025 1549.48337669 -1055.98046875 1590.203125 C-1055.46983887 1591.37842773 -1054.95920898 1592.55373047 -1054.43310547 1593.76464844 C-1037.43676616 1632.74648869 -1018.42373598 1670.85717958 -996.64794922 1707.39599609 C-994.95445912 1710.24691105 -993.27967836 1713.10810294 -991.609375 1715.97265625 C-985.02109719 1727.25181103 -978.19926286 1738.31794336 -970.98046875 1749.203125 C-970.30822266 1750.22100098 -969.63597656 1751.23887695 -968.94335938 1752.28759766 C-948.16579872 1783.74359536 -926.28078434 1814.32749453 -902.37304688 1843.49462891 C-900.53134809 1845.75413243 -898.72432799 1848.04031878 -896.91796875 1850.328125 C-892.27669911 1856.14673977 -887.39945603 1861.76034437 -882.53613281 1867.39306641 C-881.02683428 1869.14917742 -879.52906664 1870.91438415 -878.03515625 1872.68359375 C-872.15075244 1879.63726433 -866.09270168 1886.38321556 -859.84472656 1893.01269531 C-856.94805729 1896.08707435 -854.09369628 1899.17270798 -851.35546875 1902.390625 C-847.91161641 1906.40262557 -844.14088572 1910.06878089 -840.38232422 1913.78198242 C-837.63670463 1916.50652157 -834.9875853 1919.25357612 -832.48046875 1922.203125 C-825.98229724 1929.81345301 -818.72443531 1936.82075343 -811.10546875 1943.296875 C-808.28651236 1945.8256447 -805.64129691 1948.50977744 -802.98046875 1951.203125 C-799.13894024 1955.08684852 -795.25674108 1958.82867277 -791.09375 1962.37109375 C-788.92379261 1964.25225829 -786.81537708 1966.19284468 -784.71069336 1968.14648438 C-779.52075163 1972.96272401 -774.20361444 1977.52516997 -768.68359375 1981.96484375 C-765.9223105 1984.25128205 -763.29508653 1986.63920718 -760.66796875 1989.078125 C-756.13983299 1993.24119182 -751.44533604 1997.06526806 -746.58349609 2000.82250977 C-742.62340628 2003.88963815 -738.74768015 2007.03911313 -734.90454102 2010.25146484 C-725.95394326 2017.72944141 -716.69267129 2024.68131055 -707.25878906 2031.53466797 C-704.40778217 2033.62251421 -701.59033883 2035.75242611 -698.77514648 2037.88818359 C-690.3556522 2044.26995078 -681.74826255 2050.31107709 -672.98046875 2056.203125 C-672.4531012 2056.55799988 -671.92573364 2056.91287476 -671.38238525 2057.27850342 C-600.02973327 2105.28808678 -524.65765408 2145.66280641 -395.35546875 2194.515625 C-394.61214294 2194.76465576 -393.86881714 2195.01368652 -393.10296631 2195.27026367 C-382.46255367 2198.82621446 -371.75841394 2202.09094598 -360.98046875 2205.203125 C-359.30570646 2205.69695751 -357.63117016 2206.19155827 -355.95703125 2206.6875 C-325.70332609 2215.54266138 -295.13144949 2222.53080543 -264.23898315 2228.74737549 C-262.1475359 2229.16941223 -260.0571399 2229.59624635 -257.96704102 2230.02490234 C-219.84461671 2237.78209581 -181.34595146 2242.64913279 -142.60546875 2245.953125 C-141.36086884 2246.06012726 -140.11626892 2246.16712952 -138.83395386 2246.27737427 C-111.64716578 2248.59227556 -84.62927292 2249.39169033 -57.359375 2249.38842773 C-54.04844628 2249.3883471 -50.73765779 2249.39520761 -47.42675781 2249.40893555 C-15.58239935 2249.53860219 16.11856931 2248.3059899 47.83203125 2245.328125 C49.22801041 2245.1997374 49.22801041 2245.1997374 50.65219116 2245.0687561 C79.36657096 2242.42330574 107.66872353 2238.64640993 136.03688049 2233.46884155 C140.85829951 2232.58946802 145.68323777 2231.73947088 150.515625 2230.921875 C184.97789268 2225.05877564 219.49089435 2217.24939895 252.83911133 2206.72436523 C257.59059026 2205.22500551 262.35480637 2203.83255321 267.16508484 2202.53671265 C277.95426966 2199.61752908 288.48127733 2196.10629096 299.01953125 2192.390625 C299.93495697 2192.06942688 300.85038269 2191.74822876 301.79354858 2191.41729736 C332.98820783 2180.45990369 363.88467001 2168.82879044 394.01953125 2155.203125 C395.10476074 2154.71424805 396.18999023 2154.22537109 397.30810547 2153.72167969 C404.91165446 2150.28500852 412.47573273 2146.76889492 420.01953125 2143.203125 C420.63395081 2142.91288452 421.24837036 2142.62264404 421.88140869 2142.3236084 C438.32671299 2134.54791034 454.56191966 2126.5228891 470.44091797 2117.6328125 C473.03849998 2116.19260797 475.65201286 2114.78690815 478.2734375 2113.390625 C492.39667087 2105.84894227 506.07307728 2097.64736676 519.69726562 2089.25 C522.77519042 2087.35366538 525.85760538 2085.46488284 528.94140625 2083.578125 C538.44417633 2077.74916281 547.8490941 2071.80732133 557.06494141 2065.53369141 C559.21722194 2064.06854915 561.37436822 2062.61070286 563.53125 2061.15234375 C580.03272579 2049.96114277 596.13500495 2038.25140438 612.01953125 2026.203125 C612.57946777 2025.77966797 613.1394043 2025.35621094 613.71630859 2024.91992188 C622.36691033 2018.36903115 630.79957317 2011.56882449 639.19482422 2004.69580078 C640.80176821 2003.38126298 642.41232316 2002.07114198 644.0234375 2000.76171875 C653.7953423 1992.81048908 663.43102789 1984.72070294 672.7578125 1976.25 C674.82627 1974.3780281 676.91514039 1972.5344911 679.01953125 1970.703125 C694.912886 1956.83198636 710.10659395 1942.28428321 725.00195312 1927.35107422 C727.54051975 1924.80709172 730.08446455 1922.26857372 732.62890625 1919.73046875 C734.26985237 1918.0888626 735.91048869 1916.44694669 737.55078125 1914.8046875 C738.29880005 1914.05869293 739.04681885 1913.31269836 739.81750488 1912.5440979 C743.85027268 1908.49347236 747.72256519 1904.35893376 751.44421387 1900.01998901 C754.21056105 1896.82947217 757.12374143 1893.77574164 760.01953125 1890.703125 C764.78617142 1885.61700659 769.49208296 1880.50449608 774.01953125 1875.203125 C774.94107414 1874.13513001 775.86298538 1873.0674528 776.78515625 1872 C782.2401138 1865.67457975 787.63050483 1859.30634505 792.89453125 1852.8203125 C794.28254578 1851.11080932 795.67808087 1849.40737754 797.08203125 1847.7109375 C809.56693794 1832.60970845 821.36126007 1816.94655605 833.01953125 1801.203125 C833.56963867 1800.46126953 834.11974609 1799.71941406 834.68652344 1798.95507812 C844.25425537 1786.0081047 853.1750017 1772.65115969 862.01953125 1759.203125 C862.58671875 1758.34460937 863.15390625 1757.48609375 863.73828125 1756.6015625 C878.01874705 1734.97489555 891.4980624 1712.89405168 904.01953125 1690.203125 C904.52436035 1689.29111328 905.02918945 1688.37910156 905.54931641 1687.43945312 C909.08098946 1681.0495625 912.56777306 1674.63652179 916.01953125 1668.203125 C916.49181152 1667.32317871 916.9640918 1666.44323242 917.45068359 1665.53662109 C953.52881719 1598.01844101 981.01365878 1526.71551331 1002.40618896 1453.29974365 C1003.25261196 1450.40637354 1004.11574992 1447.51802281 1004.9765625 1444.62890625 C1013.30679649 1416.24959426 1019.58932832 1387.16654913 1024.765625 1358.05859375 C1025.81801517 1352.14612816 1027.05126586 1346.28635476 1028.36181641 1340.42602539 C1029.29466616 1335.85492307 1029.85712942 1331.26059599 1030.4296875 1326.6328125 C1030.85097357 1323.33413493 1031.3545981 1320.05539691 1031.890625 1316.7734375 C1034.04311976 1303.55142821 1035.771378 1290.33196964 1037.20703125 1277.015625 C1037.33377228 1275.85132965 1037.33377228 1275.85132965 1037.46307373 1274.66351318 C1038.44740748 1265.56499224 1039.26177343 1256.48479298 1039.7668457 1247.34643555 C1040.01953125 1244.203125 1040.01953125 1244.203125 1040.50256348 1241.96835327 C1041.70798619 1235.52062263 1041.72492032 1228.83863147 1042.0625 1222.29296875 C1042.10674795 1221.44109419 1042.1509959 1220.58921963 1042.1965847 1219.71153069 C1043.25772007 1198.74838472 1043.37367295 1177.79374376 1043.33678055 1156.80787277 C1043.33196089 1153.72055405 1043.3309394 1150.63325117 1043.33053589 1147.54592896 C1044.3597483 1100.11651928 1044.3597483 1100.11651928 1039.01953125 1053.203125 C1038.72616267 1050.28686699 1038.45863291 1047.37294671 1038.20703125 1044.453125 C1035.15318545 1011.13736222 1030.79821407 977.74241016 1023.82958984 945.00878906 C1023.22101251 942.14968616 1022.61732009 939.28976854 1022.01806641 936.42871094 C1017.72217713 915.92847995 1013.42795731 895.44456116 1008.01953125 875.203125 C1007.82472168 874.46545898 1007.62991211 873.72779297 1007.42919922 872.96777344 C1006.02933155 867.69217959 1004.5419826 862.44454149 1003.01953125 857.203125 C1002.72240234 856.17638672 1002.42527344 855.14964844 1002.11914062 854.09179688 C995.96759024 832.94356743 989.15143641 812.03930804 982.01953125 791.203125 C981.79803406 790.55454529 981.57653687 789.90596558 981.34832764 789.23773193 C974.9672935 770.57355391 967.72742198 752.35571267 960.01953125 734.203125 C959.02842535 731.84774902 958.03753813 729.492281 957.046875 727.13671875 C941.53555288 690.42053096 924.48998446 654.05651234 904.40136719 619.59960938 C902.64776839 616.55838574 900.9636529 613.48205069 899.2824707 610.40039062 C872.03142184 560.52049643 838.80276421 513.16095503 802.86181641 469.17431641 C799.76010816 465.37207376 796.70805966 461.5381503 793.70263672 457.65942383 C789.16593762 451.80470616 784.44003485 446.25601872 779.39453125 440.82421875 C777.11891096 438.31280228 775.00140814 435.7316726 772.89453125 433.078125 C767.06606071 425.85454183 760.59310662 419.23516909 754.19360352 412.52075195 C752.73164919 410.96226432 751.2869507 409.38742649 749.85913086 407.79760742 C740.74687023 397.65608531 731.05151892 388.08296752 721.40307617 378.45629883 C718.83473715 375.89368677 716.27095817 373.32656668 713.70846272 370.75811291 C711.70695208 368.75296428 709.70303586 366.75023329 707.69841576 364.74819374 C706.29917296 363.3499254 704.90191324 361.94967348 703.50471497 360.54936218 C699.03667153 356.09760412 694.52033327 351.77108203 689.72583008 347.67131042 C686.97660876 345.30574197 684.35167397 342.80909548 681.70703125 340.328125 C676.86083926 335.81450099 671.86966079 331.56469486 666.703125 327.41796875 C663.86714584 325.07735713 661.1610028 322.6322229 658.45703125 320.140625 C654.37504775 316.3920993 650.20207678 312.85847863 645.84375 309.4375 C643.72268786 307.75942594 641.62530067 306.0641496 639.5390625 304.34375 C629.71440926 296.25241483 619.62693603 288.56647601 609.40771484 280.98144531 C607.19408909 279.33310653 604.98938336 277.6738518 602.7890625 276.0078125 C567.92575747 249.61405166 530.95686631 225.90623681 493.01953125 204.203125 C492.045 203.64302734 491.07046875 203.08292969 490.06640625 202.50585938 C424.03260035 164.64123655 354.39075787 135.19691513 282.1171875 111.54736328 C278.49656257 110.36202464 274.88260125 109.15740746 271.26953125 107.94921875 C256.90382497 103.1906141 242.36201261 99.30690767 227.68878174 95.63905334 C223.64409047 94.62445207 219.61552703 93.56263934 215.59375 92.4609375 C183.13266645 83.61900178 149.89446276 77.51621285 116.63104248 72.59179688 C113.85618068 72.17881349 111.08261766 71.75773092 108.30908203 71.3359375 C75.63724638 66.39240267 42.9999688 63.19632866 10.01953125 61.203125 C9.37846687 61.16176422 8.7374025 61.12040344 8.07691193 61.07778931 C-3.79575746 60.31338072 -15.62377146 60.02811332 -27.51953125 60 C-29.35897342 59.99302153 -31.19841535 59.98598056 -33.03785706 59.97888184 C-38.8937306 59.95957823 -44.74956686 59.95470506 -50.60546875 59.953125 C-51.60203617 59.95253586 -52.59860359 59.95194672 -53.62537003 59.95133972 C-84.17910635 59.93858247 -114.53932868 60.3298083 -144.98046875 63.203125 C-146.69529564 63.36004768 -148.41013956 63.5167843 -150.125 63.67333984 C-170.81540505 65.58747283 -191.438617 68.06770467 -211.98046875 71.203125 C-213.2840332 71.40099609 -214.58759766 71.59886719 -215.93066406 71.80273438 C-256.91096691 78.08305967 -298.03161217 86.04923076 -337.8359375 97.71484375 C-342.13949984 98.97233045 -346.46084516 100.14692935 -350.79370117 101.29882812 C-389.35478779 111.5864565 -427.13977156 124.89311933 -463.98046875 140.203125 C-465.05796387 140.64688477 -466.13545898 141.09064453 -467.24560547 141.54785156 C-508.30369385 158.47734261 -549.13136758 177.21793567 -587.44824219 199.73193359 C-590.15260638 201.30313477 -592.87881188 202.82949004 -595.61328125 204.34765625 C-654.99101368 237.34195797 -710.77071534 277.72015622 -762.36523438 321.82617188 C-764.02881418 323.24433846 -765.69942751 324.65387817 -767.37109375 326.0625 C-774.35503727 331.9695721 -781.12573666 338.05903853 -787.78320312 344.33203125 C-790.92370311 347.29052123 -794.07873657 350.20699742 -797.35546875 353.015625 C-800.93452613 356.09113534 -804.22690709 359.41099222 -807.51171875 362.796875 C-809.47518721 364.7106354 -811.4591383 366.48906489 -813.5390625 368.26953125 C-818.59354467 372.65730708 -823.30609359 377.3785178 -828.02612305 382.1184082 C-829.54039455 383.63804168 -831.05994305 385.15225017 -832.58007812 386.66601562 C-837.41397004 391.49694819 -842.12715741 396.38363875 -846.57397461 401.57836914 C-848.28415685 403.55393984 -850.101187 405.38864607 -851.98046875 407.203125 C-855.15136873 410.33158464 -858.10616835 413.57167852 -861.0078125 416.94921875 C-862.94532255 419.16296786 -864.93191265 421.32554748 -866.93286133 423.48193359 C-871.7655296 428.69195969 -876.3516714 434.02686269 -880.80859375 439.56640625 C-882.91803224 442.12732528 -885.10934523 444.57435955 -887.35546875 447.015625 C-891.33802156 451.3909209 -894.99864945 455.95041766 -898.62158203 460.62182617 C-901.56822421 464.41824715 -904.56840824 468.16121937 -907.62207031 471.87207031 C-919.88007798 486.7796534 -931.24354052 502.38229203 -942.46142578 518.08105469 C-943.89760461 520.08736558 -945.34258828 522.08704353 -946.7890625 524.0859375 C-966.87275614 552.00759741 -984.78461951 581.44414373 -1001.98046875 611.203125 C-1003.08955318 613.11735588 -1004.19892044 615.03142293 -1005.30859375 616.9453125 C-1007.86908446 621.36273927 -1010.42594944 625.78224261 -1012.98046875 630.203125 C-1013.31046875 629.543125 -1013.64046875 628.883125 -1013.98046875 628.203125 C-1013.21459961 626.24560547 -1013.21459961 626.24560547 -1011.9453125 623.8203125 C-1011.47319336 622.91313477 -1011.00107422 622.00595703 -1010.51464844 621.07128906 C-1009.98774414 620.08354492 -1009.46083984 619.09580078 -1008.91796875 618.078125 C-1008.37430664 617.04913086 -1007.83064453 616.02013672 -1007.27050781 614.95996094 C-1001.7454947 604.598596 -995.85214865 594.46498063 -989.85742188 584.37011719 C-987.90346165 581.07319054 -985.96434582 577.76785257 -984.02734375 574.4609375 C-972.59714651 554.99116044 -960.65141017 535.88946877 -947.98046875 517.203125 C-947.49255859 516.48092773 -947.00464844 515.75873047 -946.50195312 515.01464844 C-939.07743548 504.03505354 -931.47866527 493.19801173 -923.65722656 482.49755859 C-922.51662721 480.93679088 -921.37802913 479.37455911 -920.24121094 477.81103516 C-912.86317179 467.66470357 -905.3062774 457.71895596 -897.40527344 447.97509766 C-895.50896262 445.61673167 -893.64996982 443.2303228 -891.79125977 440.84228516 C-887.30666961 435.08128098 -882.70982913 429.44083996 -877.96679688 423.890625 C-875.06420928 420.49389159 -872.22441507 417.05535638 -869.41796875 413.578125 C-865.54467603 408.81792447 -861.47286883 404.27507716 -857.3203125 399.7578125 C-855.32212027 397.57614685 -853.35897986 395.37301191 -851.41796875 393.140625 C-841.39103727 381.62131303 -831.18883372 370.12339847 -820.2109375 359.49609375 C-818.32709048 357.55945942 -816.56915843 355.585703 -814.80859375 353.5390625 C-810.59826089 348.69197656 -806.0920123 344.16798924 -801.54296875 339.640625 C-800.73537109 338.82916016 -799.92777344 338.01769531 -799.09570312 337.18164062 C-794.783229 332.8761165 -790.38897183 328.74682947 -785.76928711 324.77368164 C-783.21248538 322.52884671 -780.85780946 320.13775103 -778.48046875 317.703125 C-774.84487739 314.01823537 -771.13433908 310.49576596 -767.1953125 307.13671875 C-764.86710537 305.10415697 -762.60887214 303.00912429 -760.35058594 300.8996582 C-754.94109236 295.84729166 -749.4251683 291.04097197 -743.6484375 286.40625 C-740.89657337 284.13384682 -738.28308732 281.75617669 -735.66796875 279.328125 C-731.05775518 275.08515461 -726.26119917 271.20435837 -721.30883789 267.37719727 C-717.31006647 264.27802719 -713.43605159 261.06954713 -709.60546875 257.765625 C-703.65565076 252.66019762 -697.44318285 247.96489684 -691.14453125 243.30078125 C-687.63881488 240.70404588 -684.17387819 238.05838318 -680.71899414 235.39453125 C-606.52667443 178.21408108 -523.4288826 131.08127951 -65.10546875 2.953125 C-63.51857742 2.82836288 -63.51857742 2.82836288 -61.89962769 2.70108032 C-58.82537308 2.46230472 -55.75073103 2.22963762 -52.67578125 2 C-51.80519577 1.93356796 -50.93461029 1.86713593 -50.03764343 1.7986908 C-33.36853493 0.5880437 -16.70984185 0.03960464 0 0 Z " fill="#7B1FA2" transform="translate(1224.98046875,77.796875)"/>
<path d="M0 0 C9.33217009 8.73234451 15.36947466 19.31436044 21.74658203 30.25390625 C25.03290792 35.87238023 28.36642029 41.46288213 31.69268799 47.05776978 C32.93336224 49.14556974 34.17269491 51.23416035 35.41162109 53.32299805 C40.88284741 62.54617461 46.38661802 71.74919799 51.91381836 80.93896484 C55.34918034 86.65617619 58.76802647 92.38277283 62.16796875 98.12109375 C62.56059906 98.78375748 62.95322937 99.4464212 63.35775757 100.12916565 C64.16221928 101.48708434 64.96665221 102.84502008 65.77105713 104.20297241 C66.17274109 104.88106964 66.57442505 105.55916687 66.98828125 106.2578125 C67.59056549 107.27459579 67.59056549 107.27459579 68.20501709 108.31192017 C74.16482754 118.3688947 80.20048722 128.37645221 86.28948975 138.35562134 C92.02675042 147.76468215 97.62636838 157.24836474 103.17633057 166.76889038 C108.39613398 175.71890259 113.71311729 184.60304035 119.11328125 193.4453125 C124.88037007 202.88839038 130.54034418 212.38638585 136.11328125 221.9453125 C141.92692127 231.91251677 147.81666606 241.82943096 153.80078125 251.6953125 C154.15317871 252.27772705 154.50557617 252.8601416 154.86865234 253.46020508 C162.1680767 267.53472738 162.1680767 267.53472738 173.61328125 277.4453125 C179.99567396 278.20135351 186.31975641 278.47847429 191.61328125 274.4453125 C197.08233417 268.24768883 201.0588338 260.87131376 205.21322632 253.76815796 C207.30796856 250.1872258 209.41852622 246.61562376 211.52734375 243.04296875 C211.95506577 242.31749344 212.38278778 241.59201813 212.82347107 240.84455872 C216.92116486 233.90296233 221.10214275 227.01365287 225.30078125 220.1328125 C232.80077488 207.82788813 240.16372907 195.44463497 247.49169922 183.03662109 C251.33872174 176.5234609 255.19233534 170.01421149 259.05078125 163.5078125 C259.6511319 162.4953949 259.6511319 162.4953949 260.26361084 161.46252441 C266.16520489 151.51552357 272.1344586 141.61198188 278.15499878 131.73660278 C284.28847823 121.6729918 290.31737725 111.54985385 296.3192749 101.40731812 C302.2364832 91.4105336 308.22874615 81.46319662 314.28198242 71.54827881 C320.536522 61.29713101 326.63109856 50.95696518 332.64306641 40.56176758 C336.10502534 34.60522485 339.6522163 28.7207003 343.37109375 22.921875 C343.7369458 22.35070953 344.10279785 21.77954407 344.47973633 21.19107056 C356.81390688 2.13381807 373.84862118 -11.72845054 396.05078125 -17.3046875 C417.94447392 -21.53683759 440.04233708 -17.01147196 458.61328125 -4.5546875 C470.71609952 3.96053496 478.58476008 14.83396853 485.92578125 27.5703125 C486.60904927 28.7412456 487.29323918 29.91164116 487.97827148 31.08154297 C489.4344795 33.56955229 490.88721281 36.05954384 492.33789062 38.55078125 C495.84519154 44.56438044 499.40567589 50.54649916 502.96322632 56.53045654 C504.18109494 58.57925161 505.39790368 60.62867303 506.61450195 62.67822266 C512.02032336 71.78236919 517.45767498 80.86716731 522.91479492 89.94067383 C526.34988852 95.6572814 529.76836083 101.38333715 533.16796875 107.12109375 C533.56059906 107.78375748 533.95322937 108.4464212 534.35775757 109.12916565 C535.16221928 110.48708434 535.96665221 111.84502008 536.77105713 113.20297241 C537.17274109 113.88106964 537.57442505 114.55916687 537.98828125 115.2578125 C538.38980408 115.93566803 538.7913269 116.61352356 539.20501709 117.31192017 C545.16482754 127.3688947 551.20048722 137.37645221 557.28948975 147.35562134 C563.02675042 156.76468215 568.62636838 166.24836474 574.17633057 175.76889038 C579.39613398 184.71890259 584.71311729 193.60304035 590.11328125 202.4453125 C595.51480108 211.28980477 600.83260714 220.17634851 606.05325317 229.12887573 C608.15784953 232.73525776 610.27150166 236.33634169 612.38499451 239.93751526 C614.2234121 243.07081301 616.05719035 246.20667919 617.88330078 249.34716797 C619.76765429 252.58491237 621.66936208 255.81191386 623.58251953 259.03271484 C624.30017386 260.24718212 625.01212953 261.46503862 625.71777344 262.68652344 C629.67347712 269.5260381 633.35312158 275.79965292 640.61328125 279.4453125 C643.66806887 280.33437805 643.66806887 280.33437805 646.61328125 280.1328125 C647.56203125 280.13667969 648.51078125 280.14054687 649.48828125 280.14453125 C656.61064762 278.55090177 660.52329807 275.04816611 664.47265625 268.97265625 C665.78804687 266.787079 667.08406519 264.5897576 668.36328125 262.3828125 C669.06541465 261.20258593 669.76929719 260.02339834 670.47485352 258.84521484 C671.88589202 256.48275437 673.28686205 254.11482491 674.67822266 251.74072266 C676.80953721 248.11108806 678.97490296 244.50326287 681.14819336 240.89868164 C682.58479293 238.51385133 684.01354418 236.12444544 685.44140625 233.734375 C689.20013211 227.45455253 693.00019012 221.19984459 696.80078125 214.9453125 C697.16017792 214.35381409 697.51957458 213.76231567 697.88986206 213.15289307 C699.72883916 210.12648153 701.56818744 207.10029582 703.40771484 204.07421875 C706.6258747 198.77985533 709.84075618 193.48350175 713.05581665 188.18725586 C714.8248307 185.27318925 716.59406749 182.35925787 718.36328125 179.4453125 C719.07161565 178.27864648 719.77994898 177.11197981 720.48828125 175.9453125 C721.90494792 173.61197917 723.32161458 171.27864583 724.73828125 168.9453125 C725.08888107 168.36785278 725.4394809 167.79039307 725.80070496 167.19543457 C726.50928836 166.02835842 727.217876 164.86128486 727.9264679 163.69421387 C729.69351001 160.78383334 731.46047909 157.87340853 733.22729492 154.96289062 C736.4599571 149.63781455 739.69323332 144.31311517 742.92910767 138.98999023 C752.80831537 122.74008445 752.80831537 122.74008445 762.61328125 106.4453125 C769.11843146 95.57719823 775.69931524 84.75522575 782.27932739 73.93235779 C784.86435091 69.67977075 787.4449542 65.42452399 790.0234375 61.16796875 C793.55475317 55.33870496 797.09388798 49.51425178 800.63818359 43.69287109 C801.92473786 41.57745146 803.20903335 39.46065591 804.49072266 37.34228516 C816.93821927 16.77670903 816.93821927 16.77670903 823.61328125 9.4453125 C824.59941406 8.32189453 824.59941406 8.32189453 825.60546875 7.17578125 C838.05075441 -6.20404051 856.26327806 -15.60461337 874.61328125 -16.5546875 C875.7528125 -16.63074219 876.89234375 -16.70679688 878.06640625 -16.78515625 C898.42753087 -17.53551642 919.43323443 -10.34125346 934.61328125 3.4453125 C935.69609375 4.39083984 935.69609375 4.39083984 936.80078125 5.35546875 C946.10052871 13.99325502 952.25961097 25.00800189 958.46377563 35.94741821 C962.02849827 42.21466284 965.78254417 48.36114441 969.55078125 54.5078125 C975.50910435 64.26094076 981.35869552 74.07071079 987.11328125 83.9453125 C992.68522579 93.50480266 998.34620629 103.00225731 1004.11328125 112.4453125 C1009.88036362 121.88837983 1015.54078728 131.38613534 1021.11328125 140.9453125 C1026.98547768 151.01686504 1032.96026462 161.01795783 1039.03295898 170.96981812 C1045.75332061 181.98598563 1052.35813169 193.06847517 1058.93115234 204.1730957 C1059.67933895 205.43702535 1060.42754834 206.70094151 1061.17578125 207.96484375 C1061.54313385 208.58544678 1061.91048645 209.2060498 1062.28897095 209.84545898 C1064.88165875 214.22139966 1067.49299412 218.58585093 1070.11328125 222.9453125 C1073.10886757 227.92917222 1076.08882584 232.9218582 1079.05078125 237.92578125 C1079.41909058 238.54794022 1079.7873999 239.17009918 1080.16687012 239.81111145 C1080.92416609 241.09045691 1081.68144945 242.36980983 1082.4387207 243.64916992 C1088.93462858 254.6197065 1095.47761061 265.55873881 1102.11328125 276.4453125 C1109.04924924 287.82557648 1115.87564476 299.26788124 1122.66796875 310.734375 C1127.4579511 318.81994991 1132.2693925 326.89185519 1137.11328125 334.9453125 C1141.15130204 341.65893243 1145.17438656 348.38095828 1149.16796875 355.12109375 C1149.56100693 355.78434662 1149.9540451 356.44759949 1150.35899353 357.13095093 C1151.97191417 359.85322149 1153.58462408 362.57561526 1155.19595337 365.29882812 C1159.52322577 372.61029413 1163.87378089 379.90483434 1168.3203125 387.14453125 C1184.09960121 412.83633946 1184.09960121 412.83633946 1188.61328125 423.4453125 C1189.06058594 424.486875 1189.50789063 425.5284375 1189.96875 426.6015625 C1196.50600934 444.98620992 1194.22293523 468.5444975 1186.18457031 486.13476562 C1177.71387232 503.48799665 1161.88203532 519.66444709 1143.640625 526.44921875 C1142.14208984 526.94228516 1142.14208984 526.94228516 1140.61328125 527.4453125 C1139.66582031 527.76371094 1138.71835938 528.08210938 1137.7421875 528.41015625 C1117.20896175 534.20431748 1095.71784547 530.60485949 1077.25 520.58984375 C1072.24812046 517.72995778 1067.86515426 514.32435336 1063.61328125 510.4453125 C1063.00484375 509.92839844 1062.39640625 509.41148437 1061.76953125 508.87890625 C1057.96696667 505.43067155 1055.19588049 501.46330033 1052.4609375 497.1484375 C1052.06966675 496.53509552 1051.678396 495.92175354 1051.27526855 495.28982544 C1047.31513796 489.04272636 1043.53666458 482.69116348 1039.78729248 476.31607056 C1037.72780314 472.81504575 1035.6590844 469.31948653 1033.58984375 465.82421875 C1032.96186386 464.76321205 1032.96186386 464.76321205 1032.32119751 463.68077087 C1028.26556517 456.83919771 1024.13278248 450.04577715 1019.98828125 443.2578125 C1013.89675595 433.27636866 1007.93922664 423.22384401 1002.05023193 413.12173462 C996.83042852 404.17172241 991.51344521 395.28758465 986.11328125 386.4453125 C979.9794795 376.40177591 973.9772833 366.28966896 968.05078125 356.12255859 C962.83078463 347.17227946 957.513616 338.28786429 952.11328125 329.4453125 C946.34619878 320.00224501 940.68577049 310.50449301 935.11328125 300.9453125 C928.74392008 290.02102449 922.25906247 279.17377421 915.66308594 268.38476562 C912.41877666 263.07534332 909.19460594 257.75868077 906.0546875 252.38671875 C905.23931519 250.99851929 905.23931519 250.99851929 904.4074707 249.58227539 C903.41473699 247.88701581 902.42954409 246.18730553 901.45385742 244.48217773 C898.0523519 238.69140761 894.35180509 234.24225219 887.61328125 232.4453125 C880.86801181 231.69835313 876.9195229 232.20031918 871.61328125 236.4453125 C870.95328125 236.4453125 870.29328125 236.4453125 869.61328125 236.4453125 C869.33581055 237.01467529 869.05833984 237.58403809 868.77246094 238.1706543 C867.61227402 240.44728899 866.36471914 242.63924571 865.06640625 244.83984375 C864.55883789 245.7004541 864.05126953 246.56106445 863.52832031 247.44775391 C862.97885742 248.37507324 862.42939453 249.30239258 861.86328125 250.2578125 C861.28545898 251.23411621 860.70763672 252.21041992 860.11230469 253.21630859 C854.32373206 262.97262791 848.42222881 272.65871506 842.50830078 282.33935547 C839.09641425 287.93147354 835.69925622 293.53253862 832.30078125 299.1328125 C831.58107301 300.31853326 830.86134638 301.50424285 830.14160156 302.68994141 C828.68988058 305.08150606 827.23822465 307.47311017 825.78662109 309.86474609 C822.58254042 315.14360768 819.3776233 320.42196143 816.17276001 325.7003479 C814.40289862 328.61531476 812.63309278 331.53031536 810.86328125 334.4453125 C810.15494818 335.61197933 809.44661485 336.77864599 808.73828125 337.9453125 C808.21234375 338.8115625 808.21234375 338.8115625 807.67578125 339.6953125 C800.94661458 350.77864583 794.21744792 361.86197917 787.48828125 372.9453125 C786.96238152 373.81150208 786.96238152 373.81150208 786.42585754 374.69519043 C785.71727414 375.86226658 785.0086865 377.02934014 784.3000946 378.19641113 C782.53305249 381.10679166 780.76608341 384.01721647 778.99926758 386.92773438 C775.7666054 392.25281045 772.53332918 397.57750983 769.29745483 402.90063477 C759.41832562 419.15058778 759.41832562 419.15058778 749.61328125 435.4453125 C743.03120014 446.43869111 736.39194574 457.39695315 729.71789551 468.33468628 C727.46238254 472.03595948 725.2358695 475.75331919 723.0234375 479.48046875 C717.03288326 489.49827898 711.04781241 498.32786898 702.61328125 506.4453125 C701.82824219 507.2496875 701.04320312 508.0540625 700.234375 508.8828125 C685.21457919 523.53144367 665.55122914 528.69452349 645.05102539 528.76660156 C637.09523284 528.65304603 630.15838216 527.03194852 622.61328125 524.4453125 C621.70191406 524.14496094 620.79054688 523.84460937 619.8515625 523.53515625 C608.92420935 519.57248972 599.74485065 512.6383915 591.61328125 504.4453125 C591.0303833 503.86015869 590.44748535 503.27500488 589.84692383 502.67211914 C583.57690863 496.03952305 579.19888777 488.48457841 574.67578125 480.6328125 C573.42090896 478.48148342 572.16230729 476.33236483 570.90350342 474.18333435 C570.05019775 472.72612153 569.19802696 471.26824358 568.34698486 469.80970764 C564.65077482 463.48098258 560.85714082 457.21512965 557.0319519 450.96377563 C550.58153764 440.42005776 544.27508465 429.79998215 538.05023193 419.12173462 C532.83042852 410.17172241 527.51344521 401.28758465 522.11328125 392.4453125 C515.9794795 382.40177591 509.9772833 372.28966896 504.05078125 362.12255859 C498.83078463 353.17227946 493.513616 344.28786429 488.11328125 335.4453125 C482.34619385 326.00223694 476.68613436 316.50428582 471.11328125 306.9453125 C464.85274764 296.21109392 458.49792211 285.54019153 452.00805664 274.94287109 C451.30475474 273.79400378 450.60154855 272.64507787 449.8984375 271.49609375 C449.54967056 270.9262677 449.20090363 270.35644165 448.84156799 269.76934814 C446.59000135 266.07901772 444.38048693 262.366216 442.19577026 258.63594055 C440.68666892 256.06122453 439.16570482 253.49360758 437.64404297 250.92630005 C436.92639309 249.70797399 436.21443762 248.48627204 435.50878906 247.26095581 C429.73325253 237.23803271 429.73325253 237.23803271 420.61328125 230.4453125 C415.22991266 229.22122135 410.27029511 229.70886189 405.23828125 231.9453125 C399.42774883 237.4791529 395.33333836 244.3152821 391.30078125 251.1953125 C390.24692883 252.97184981 389.19218965 254.74786128 388.13671875 256.5234375 C387.57178711 257.47541016 387.00685547 258.42738281 386.42480469 259.40820312 C383.12492947 264.94060847 379.77310482 270.44154649 376.42578125 275.9453125 C375.69875886 277.14156936 374.97178986 278.33785867 374.24487305 279.53417969 C372.7697599 281.9617276 371.29439339 284.38912125 369.81884766 286.81640625 C366.6006878 292.11076967 363.38580632 297.40712325 360.17074585 302.70336914 C358.4017318 305.61743575 356.63249501 308.53136713 354.86328125 311.4453125 C354.15494685 312.61197852 353.44661352 313.77864519 352.73828125 314.9453125 C345.65494792 326.61197917 338.57161458 338.27864583 331.48828125 349.9453125 C331.13768143 350.52277222 330.7870816 351.10023193 330.42585754 351.69519043 C329.71727414 352.86226658 329.0086865 354.02934014 328.3000946 355.19641113 C326.53305249 358.10679166 324.76608341 361.01721647 322.99926758 363.92773438 C319.7666054 369.25281045 316.53332918 374.57750983 313.29745483 379.90063477 C303.41824713 396.15054055 303.41824713 396.15054055 293.61328125 412.4453125 C287.114379 423.30298833 280.53974875 434.11449607 273.96536255 444.92654419 C271.32501011 449.270289 268.69233505 453.61863123 266.0625 457.96875 C261.9293814 464.80447113 257.7761248 471.62765275 253.61328125 478.4453125 C253.13922852 479.22664551 252.66517578 480.00797852 252.17675781 480.81298828 C240.12489002 500.61383784 224.38436483 517.62887992 201.38671875 524.39453125 C176.94136525 529.70507356 155.98048624 525.5247257 134.69921875 512.6875 C116.27131002 500.42124497 106.66736052 480.35778023 95.859375 461.7265625 C92.62737203 456.15573987 89.33636058 450.62282443 86.01475525 445.10502625 C83.38455124 440.73504176 80.77325981 436.35435546 78.17578125 431.96484375 C77.80742661 431.34260422 77.43907196 430.72036469 77.05955505 430.07926941 C76.30210795 428.79973884 75.54468745 427.52019253 74.78729248 426.2406311 C68.25348764 415.20551538 61.66833569 404.20500734 54.98828125 393.2578125 C48.89745989 383.27592821 42.93923641 373.22386077 37.05023193 363.12173462 C31.83042852 354.17172241 26.51344521 345.28758465 21.11328125 336.4453125 C15.3462013 327.00224915 9.68559073 317.504595 4.11328125 307.9453125 C-2.23150803 297.06144882 -8.70576049 286.26440703 -15.27099609 275.51220703 C-20.28007784 267.30321369 -25.20102678 259.04626075 -30.01464844 250.72094727 C-37.19432862 237.68202101 -37.19432862 237.68202101 -48.38671875 228.4453125 C-50.78243132 228.13122267 -50.78243132 228.13122267 -53.51171875 228.0703125 C-54.42179687 228.02132812 -55.331875 227.97234375 -56.26953125 227.921875 C-61.98449574 228.88153069 -66.09238835 231.83454139 -69.6875 236.30859375 C-70.35136719 237.44683594 -71.01523437 238.58507812 -71.69921875 239.7578125 C-72.09616943 240.42458008 -72.49312012 241.09134766 -72.90209961 241.77832031 C-73.84579048 243.36845229 -74.78066344 244.96383462 -75.70898438 246.56298828 C-77.6692854 249.93075806 -79.65905529 253.2806102 -81.65234375 256.62890625 C-84.08630504 260.71948239 -86.51883855 264.81085614 -88.94262695 268.9074707 C-94.19915504 277.7895919 -99.51339327 286.63341359 -104.88671875 295.4453125 C-111.82291756 306.82543349 -118.64908434 318.26788474 -125.44140625 329.734375 C-130.82531825 338.82251367 -136.24398509 347.88889759 -141.68847656 356.94091797 C-146.3368745 364.67709171 -150.9441749 372.43702433 -155.54394531 380.20214844 C-162.60999745 392.13000709 -169.74586503 404.01073067 -176.96118164 415.84887695 C-182.43750146 424.84349789 -187.83042831 433.88616013 -193.19921875 442.9453125 C-193.6025946 443.62575623 -194.00597046 444.30619995 -194.42156982 445.00726318 C-195.9961855 447.66347804 -197.57060337 450.31981003 -199.14477539 452.97628784 C-204.18901385 461.48809735 -209.24074304 469.99449014 -214.38671875 478.4453125 C-214.79035645 479.11175781 -215.19399414 479.77820312 -215.60986328 480.46484375 C-220.50162093 488.49770945 -225.72315137 495.77041253 -232.38671875 502.4453125 C-233.1446875 503.21488281 -233.90265625 503.98445313 -234.68359375 504.77734375 C-251.92295435 521.3124821 -272.50586945 526.08460972 -295.796875 525.78515625 C-313.16519014 525.18999573 -328.54303775 516.80615289 -341.38671875 505.4453125 C-342.30517578 504.66800781 -342.30517578 504.66800781 -343.2421875 503.875 C-357.88237877 490.54137042 -364.54238389 470.27199268 -365.70703125 450.98828125 C-366.20381429 437.7039878 -363.85633028 425.77649862 -357.7890625 413.90625 C-357.26595741 412.87301605 -357.26595741 412.87301605 -356.73228455 411.81890869 C-352.94188969 404.42911624 -348.73382223 397.30609745 -344.44921875 390.1953125 C-343.61562756 388.80192798 -342.78246598 387.40828637 -341.94970703 386.0144043 C-336.2528994 376.49247431 -330.49025995 367.01040315 -324.71243286 357.53747559 C-319.3408557 348.7285199 -314.08372712 339.85825631 -308.88671875 330.9453125 C-303.01165715 320.86949768 -297.03463681 310.86378166 -290.95898438 300.90771484 C-285.19634155 291.46220001 -279.52135271 281.96770125 -273.88671875 272.4453125 C-267.90891861 262.34298159 -261.87641806 252.27786475 -255.76171875 242.2578125 C-250.03745416 232.87682178 -244.42226181 223.43884816 -238.88671875 213.9453125 C-233.3511731 204.4517724 -227.73580009 195.01391811 -222.01171875 185.6328125 C-215.85876381 175.54843566 -209.78228809 165.42180803 -203.76171875 155.2578125 C-203.36003479 154.57971527 -202.95835083 153.90161804 -202.54449463 153.20297241 C-202.14454285 152.52779572 -201.74459106 151.85261902 -201.33251953 151.15698242 C-200.53552166 149.81166257 -199.73848429 148.46636611 -198.94140625 147.12109375 C-198.5522403 146.46427109 -198.16307434 145.80744843 -197.76211548 145.13072205 C-193.56566079 138.05279326 -189.32605276 131.00095319 -185.08496094 123.94970703 C-180.43628811 116.21307581 -175.82871393 108.45268467 -171.22866821 100.68710327 C-164.43641773 89.22133751 -157.5900115 77.79201787 -150.65118408 66.41433716 C-145.67578714 58.25469199 -140.7732089 50.05678644 -135.92080688 41.82366943 C-120.53888789 15.74272583 -105.33908229 -9.43160764 -74.57421875 -18.4296875 C-48.03359205 -24.69942975 -20.7321495 -17.77041385 0 0 Z " fill="#F9F9F9" transform="translate(836.38671875,719.5546875)"/>
<path d="M0 0 C3.87101664 3.51745774 6.67833011 7.78258527 9.5546875 12.1171875 C9.99356796 12.77757523 10.43244843 13.43796295 10.8846283 14.11836243 C15.06975147 20.4700384 18.9769871 26.97007834 22.81939697 33.53308105 C24.86220108 37.0211935 26.92029081 40.50028451 28.9765625 43.98046875 C29.39212402 44.68450836 29.80768555 45.38854797 30.23583984 46.11392212 C34.28553172 52.96748296 38.40332597 59.77862015 42.54296875 66.578125 C42.89007904 67.14868622 43.23718933 67.71924744 43.59481812 68.30709839 C46.03355906 72.31551583 48.47530918 76.32209462 50.91796875 80.328125 C53.71182482 84.91012752 56.50420568 89.49302054 59.29296875 94.078125 C59.64055237 94.64954224 59.98813599 95.22095947 60.34625244 95.80969238 C66.51205283 105.95293445 72.57912256 116.15323153 78.62542725 126.36804199 C84.84233866 136.86893108 91.14204208 147.31566557 97.49511719 157.73461914 C102.95738453 166.70308886 108.32194211 175.72748544 113.66796875 184.765625 C119.31923912 194.31928414 125.0320792 203.8222323 130.92236328 213.23120117 C135.49535814 220.56887749 139.89195975 228.00631486 144.28649902 235.45153809 C147.81323205 241.42056714 151.36022439 247.37753556 154.91796875 253.328125 C155.81370605 254.82666016 155.81370605 254.82666016 156.72753906 256.35546875 C158.18763496 258.77622421 159.67017549 261.18057239 161.16796875 263.578125 C161.75698975 264.55894043 161.75698975 264.55894043 162.35791016 265.55957031 C165.2849705 270.14793518 168.06097317 272.12429 172.91796875 274.328125 C178.51328264 275.37340342 184.48817999 275.11247787 189.32568359 271.82739258 C196.26670367 265.29185068 200.79560566 255.66289743 205.54296875 247.515625 C206.9604904 245.09976151 208.38200497 242.68626479 209.8046875 240.2734375 C210.15662674 239.67618362 210.50856598 239.07892975 210.87117004 238.46357727 C213.96273619 233.22840406 217.1385806 228.04945861 220.35546875 222.890625 C225.34687715 214.88133668 230.27559434 206.83570176 235.16796875 198.765625 C235.52559296 198.17580841 235.88321716 197.58599182 236.25167847 196.978302 C238.07783073 193.9661676 239.9033328 190.95363987 241.72851562 187.94091797 C244.93510045 182.64869882 248.14746655 177.35999044 251.35949707 172.07107544 C253.12923388 169.15690814 254.89858126 166.2425044 256.66796875 163.328125 C257.37630023 162.16145721 258.08463356 160.99479054 258.79296875 159.828125 C259.14359375 159.250625 259.49421875 158.673125 259.85546875 158.078125 C263.04296883 152.82812487 263.04296883 152.82812487 264.10542297 151.07820129 C264.81390996 149.91128096 265.52239588 148.74435998 266.23088074 147.57743835 C267.99935453 144.66464753 269.76784665 141.75186784 271.53637695 138.83911133 C274.75205803 133.54286704 277.96759407 128.24653493 281.1824646 122.94979858 C288.6508312 110.64513763 296.12339151 98.34306996 303.61010742 86.04956055 C307.85484844 79.07817347 312.09228814 72.10237279 316.32717896 65.125 C317.41175396 63.33836271 318.49670762 61.55195594 319.58178711 59.765625 C323.0026788 54.13348857 326.42008924 48.4993061 329.828125 42.859375 C333.16917775 37.33519059 336.53120076 31.82439864 339.91796875 26.328125 C340.31274414 25.68439941 340.70751953 25.04067383 341.11425781 24.37744141 C353.20702214 4.81430794 370.67754499 -10.64058815 393.390625 -16.19921875 C414.55288188 -20.15692058 435.39921281 -17.39884556 453.921875 -5.7890625 C456.67214601 -3.8382444 459.30321855 -1.80016005 461.91796875 0.328125 C462.69785156 0.93269531 463.47773437 1.53726562 464.28125 2.16015625 C474.33919558 10.4114933 480.76649502 22.44540063 487.31588745 33.52606201 C488.85911843 36.13698678 490.4125876 38.74177394 491.96543884 41.34698486 C492.76984841 42.6965901 493.57377293 44.04648457 494.37721252 45.39666748 C498.32494167 52.02640169 502.33813097 58.61542799 506.35546875 65.203125 C512.85877551 75.87809569 519.25884385 86.61177858 525.6257019 97.36859131 C531.84253022 107.86929112 538.14214896 118.31584084 544.49511719 128.73461914 C549.95738453 137.70308886 555.32194211 146.72748544 560.66796875 155.765625 C565.83749678 164.50488281 571.03473247 173.21806466 576.41796875 181.828125 C581.80120714 190.43818871 586.99835492 199.15141476 592.16796875 207.890625 C599.02775803 219.48703739 605.94600773 231.04429479 612.97094727 242.54150391 C616.17031982 247.78250385 619.34543493 253.03240089 622.43359375 258.33984375 C623.24389038 259.72381348 623.24389038 259.72381348 624.07055664 261.13574219 C625.05333395 262.81961003 626.02734204 264.5086457 626.98999023 266.20410156 C630.25598068 271.78145498 633.54858025 276.2049955 639.91796875 278.328125 C645.49365016 278.93223968 650.99041694 278.93389351 655.9375 276.0703125 C660.18088021 272.33747705 662.84521269 267.29413537 665.66992188 262.46191406 C666.94734149 260.27790635 668.24944883 258.11043678 669.55859375 255.9453125 C671.54880746 252.64896689 673.52776014 249.34619251 675.5 246.0390625 C679.33643016 239.61595694 683.21954361 233.22134683 687.10546875 226.828125 C687.83268696 225.63135049 688.55990047 224.43457313 689.28710938 223.23779297 C690.76200752 220.81075108 692.23714883 218.38385715 693.71240234 215.95703125 C696.9305622 210.66266783 700.14544368 205.36631425 703.36050415 200.07006836 C705.1295182 197.15600175 706.89875499 194.24207037 708.66796875 191.328125 C709.37630315 190.16145898 710.08463648 188.99479231 710.79296875 187.828125 C723.54296875 166.828125 736.29296875 145.828125 749.04296875 124.828125 C749.39356857 124.25066528 749.7441684 123.67320557 750.10539246 123.07824707 C750.81397586 121.91117092 751.5225635 120.74409736 752.2311554 119.57702637 C753.99819751 116.66664584 755.76516659 113.75622103 757.53198242 110.84570312 C760.7646446 105.52062705 763.99792082 100.19592767 767.23379517 94.87280273 C777.11268257 78.62270421 777.11268257 78.62270421 786.91796875 62.328125 C791.46892755 54.73415133 796.02597415 47.14384625 800.60522461 39.56689453 C801.34215608 38.34629682 802.07787985 37.12496895 802.81225586 35.90283203 C816.85751532 12.53624422 832.64628406 -6.91464677 859.29296875 -15.796875 C873.21951755 -19.15845575 888.24349552 -18.83147462 901.91796875 -14.671875 C903.0471875 -14.34316406 904.17640625 -14.01445313 905.33984375 -13.67578125 C928.45664507 -6.25271949 942.14472147 9.67927368 954.02636719 30.08398438 C956.11864518 33.67228974 958.23811565 37.24361612 960.36328125 40.8125 C962.78792125 44.88656735 965.21118656 48.96139859 967.62524414 53.04174805 C972.85500262 61.87973449 978.13782027 70.68294905 983.48046875 79.453125 C989.71367869 89.68604468 995.8990674 99.94630909 1002.05450439 110.22619629 C1007.10827962 118.66463988 1012.19194885 127.08391323 1017.30859375 135.484375 C1024.16002344 146.73299091 1030.91703087 158.03428525 1037.6257019 169.36859131 C1043.16483021 178.72460383 1048.75782329 188.04484988 1054.41796875 197.328125 C1060.90123662 207.96141345 1067.28274217 218.6517923 1073.62597656 229.36914062 C1079.50462049 239.29857482 1085.45098672 249.1834452 1091.45895386 259.03509521 C1097.20716658 268.46432414 1102.85915081 277.94778175 1108.48046875 287.453125 C1114.2060205 297.13400961 1119.99447478 306.76661477 1125.91796875 316.328125 C1132.25794672 326.56191008 1138.4353703 336.88290796 1144.56280518 347.24481201 C1149.89584886 356.26213087 1155.27188671 365.25039581 1160.72305298 374.19683838 C1163.79360469 379.23720608 1166.85492115 384.28319537 1169.91796875 389.328125 C1170.55057617 390.36807617 1171.18318359 391.40802734 1171.83496094 392.47949219 C1182.5580258 410.15196047 1191.56781548 426.23915106 1191.35546875 447.515625 C1191.34302124 449.14528198 1191.34302124 449.14528198 1191.33032227 450.80786133 C1190.85815707 473.53060144 1182.48356978 491.32912653 1166.171875 507.19921875 C1150.09094105 522.3883158 1133.69496624 530.17634527 1111.2734375 529.54296875 C1089.80602068 528.16845429 1070.32909273 519.62091114 1055.91796875 503.328125 C1049.81485275 495.49150795 1044.93400761 486.81543847 1039.91796875 478.265625 C1038.64769922 476.11122813 1037.3759412 473.95771441 1036.10412598 471.80422974 C1035.25202349 470.3612021 1034.40037827 468.91790436 1033.54919434 467.47433472 C1029.87160183 461.23911446 1026.1518015 455.02982387 1022.41796875 448.828125 C1016.23561065 438.54810839 1010.10634272 428.23719882 1003.98730469 417.91943359 C998.86308257 409.27966241 993.72316388 400.65007294 988.54296875 392.04370117 C985.53170094 387.03437468 982.54131607 382.01303918 979.5625 376.984375 C978.97894745 375.9993676 978.97894745 375.9993676 978.38360596 374.99446106 C977.78935822 373.99137154 977.78935822 373.99137154 977.18310547 372.96801758 C976.36557965 371.58804168 975.5480339 370.20807759 974.73046875 368.828125 C974.32362854 368.14140717 973.91678833 367.45468933 973.49761963 366.74716187 C967.48062793 356.59562498 961.38920123 346.49264807 955.24258423 336.41918945 C949.50543574 327.01029929 943.90643425 317.52652497 938.35592651 308.00656128 C932.43294547 297.85275784 926.37773279 287.78614165 920.24902344 277.75537109 C916.6082499 271.79111804 913.00550608 265.80787654 909.46875 259.78125 C909.10547104 259.16319489 908.74219208 258.54513977 908.36790466 257.90835571 C906.63183853 254.95324681 904.90199967 251.99492732 903.18139648 249.03076172 C897.11332595 237.9781686 897.11332595 237.9781686 886.91796875 231.328125 C880.40025002 230.4284399 875.52474338 230.75815929 869.99316406 234.45849609 C865.57302607 238.44078042 862.90486183 243.77704825 859.98046875 248.890625 C859.24416279 250.14504174 858.50584011 251.39827665 857.765625 252.65039062 C856.23192185 255.24827578 854.70695177 257.85099094 853.18798828 260.45751953 C850.01864367 265.8809888 846.74474069 271.24019752 843.47140503 276.60128784 C841.69866361 279.50724031 839.93373911 282.41793343 838.16796875 285.328125 C837.45967231 286.49481406 836.75133899 287.66148074 836.04296875 288.828125 C835.51703125 289.694375 835.51703125 289.694375 834.98046875 290.578125 C833.91796875 292.328125 832.85546875 294.078125 831.79296875 295.828125 C831.26706902 296.69431458 831.26706902 296.69431458 830.73054504 297.57800293 C830.02196164 298.74507908 829.313374 299.91215264 828.6047821 301.07922363 C826.83773999 303.98960416 825.07077091 306.90002897 823.30395508 309.81054688 C820.0712929 315.13562295 816.83801668 320.46032233 813.60214233 325.78344727 C803.72293463 342.03335305 803.72293463 342.03335305 793.91796875 358.328125 C787.04066501 369.81799386 780.0792903 381.2567616 773.12353516 392.69921875 C769.9053753 397.99358217 766.69049382 403.28993575 763.47543335 408.58618164 C761.7064193 411.50024825 759.93718251 414.41417963 758.16796875 417.328125 C757.45963435 418.49479102 756.75130102 419.66145769 756.04296875 420.828125 C751.79296871 427.82812506 751.79296871 427.82812506 750.73059082 429.57791138 C750.02183572 430.7452811 749.3130955 431.91265985 748.60437012 433.08004761 C746.8401113 435.9860316 745.07559923 438.8918612 743.31054688 441.79736328 C739.66349533 447.80153451 736.02134881 453.80861276 732.38671875 459.8203125 C728.83441828 465.69522298 725.26844352 471.56161253 721.69042969 477.42089844 C720.61668011 479.18208439 719.54609753 480.94521381 718.48144531 482.71191406 C713.16408066 491.52963346 707.17709195 499.05813485 699.91796875 506.328125 C699.263125 506.99457031 698.60828125 507.66101562 697.93359375 508.34765625 C682.73532637 522.73405037 662.09599896 527.95951635 641.6796875 527.59765625 C628.16364223 527.04414461 616.54187874 521.90560613 604.91796875 515.328125 C604.05429688 514.84472656 603.190625 514.36132812 602.30078125 513.86328125 C590.49648473 506.61687146 582.83237841 496.02416567 575.91796875 484.328125 C574.76836144 482.40356682 573.6186098 480.47909484 572.46875 478.5546875 C569.38895049 473.38390338 566.32706356 468.20280824 563.27182007 463.01750183 C559.0198147 455.80155883 554.75326614 448.59427333 550.48046875 441.390625 C550.08162476 440.71794586 549.68278076 440.04526672 549.27185059 439.35220337 C543.32851168 429.33259716 537.30911747 419.3619843 531.2414856 409.41726685 C525.50430373 400.00839532 519.90477966 390.52489786 514.35491943 381.00454712 C509.13511602 372.05453491 503.81813271 363.17039715 498.41796875 354.328125 C492.6508888 344.88506165 486.99027823 335.3874075 481.41796875 325.828125 C475.41262822 315.52655235 469.29657137 305.29999718 463.08795166 295.11972046 C458.43594845 287.49110805 453.8265128 279.84035356 449.29296875 272.140625 C448.78137207 271.2751001 448.26977539 270.4095752 447.74267578 269.51782227 C444.81618199 264.56441304 441.91406874 259.59779064 439.02734375 254.62109375 C437.69961704 252.35653727 436.37149913 250.09221009 435.04296875 247.828125 C434.43630371 246.77085205 433.82963867 245.7135791 433.20458984 244.62426758 C429.31596641 238.03346181 425.46469662 231.84370096 417.91796875 229.328125 C412.7851801 228.83660207 408.34976361 228.67976506 403.60546875 230.828125 C396.58758226 237.3563915 391.98793723 245.92505006 387.10546875 254.078125 C386.35852722 255.31798214 385.61112165 256.55755982 384.86328125 257.796875 C383.31380305 260.36546396 381.76630476 262.93522963 380.22021484 265.50585938 C376.98559673 270.88051103 373.7266193 276.24033312 370.46801758 281.60046387 C368.70661732 284.49852221 366.94721797 287.39779498 365.1875 290.296875 C362.66026186 294.4598045 360.13183798 298.62201067 357.60214233 302.78344727 C347.72293463 319.03335305 347.72293463 319.03335305 337.91796875 335.328125 C331.04066501 346.81799386 324.0792903 358.2567616 317.12353516 369.69921875 C313.9053753 374.99358217 310.69049382 380.28993575 307.47543335 385.58618164 C305.7064193 388.50024825 303.93718251 391.41417963 302.16796875 394.328125 C301.45963435 395.49479102 300.75130102 396.66145769 300.04296875 397.828125 C278.79296875 432.82812499 278.79296875 432.82812499 277.73060608 434.5778656 C277.0217757 435.74537308 276.31298465 436.91290444 275.60423279 438.08045959 C273.84132479 440.98445814 272.07775112 443.88804812 270.31274414 446.79077148 C267.03002499 452.19108571 263.75377158 457.59499772 260.50045776 463.01309204 C258.98576593 465.53476204 257.46737816 468.05419724 255.94873047 470.57348633 C255.23514324 471.75955818 254.52330992 472.94668752 253.81347656 474.13500977 C249.21466602 481.83258488 244.31283281 489.1657281 238.91796875 496.328125 C238.43908203 496.97338135 237.96019531 497.6186377 237.46679688 498.28344727 C226.60856465 512.57214013 208.42774265 521.35878085 191.2265625 524.87890625 C168.53919003 527.95924608 148.53400708 522.37219048 129.91796875 509.328125 C115.20698034 497.94958106 107.0146353 482.68119677 97.93041992 466.76855469 C93.29939442 458.66957021 88.53339079 450.66420014 83.66796875 442.703125 C77.55964495 432.70030879 71.51867646 422.66077475 65.54296875 412.578125 C65.14857605 411.91290833 64.75418335 411.24769165 64.34783936 410.56231689 C61.13263893 405.13856029 57.92107991 399.71265026 54.7097168 394.28662109 C51.90583877 389.54944451 49.10042515 384.81318182 46.29296875 380.078125 C45.89871704 379.41303925 45.50446533 378.74795349 45.0982666 378.06271362 C39.212817 368.13897216 33.24991091 358.26505348 27.24066162 348.41589355 C21.50375184 339.00748159 15.90451072 329.52443653 10.35491943 320.00454712 C4.79499633 310.47135674 -0.88417477 301.01802093 -6.63748169 291.60046387 C-12.57573894 281.87522029 -18.36501813 272.0691963 -24.10009766 262.22296143 C-28.69949022 254.32943071 -33.35960843 246.48711731 -38.30444336 238.80371094 C-39.90129088 236.31026841 -41.13983762 234.15470589 -42.08203125 231.328125 C-43.86432061 230.18602683 -43.86432061 230.18602683 -46.08203125 229.328125 C-47.22478516 228.81958984 -47.22478516 228.81958984 -48.390625 228.30078125 C-51.19468724 227.28741188 -53.42157888 226.93138239 -56.39453125 226.828125 C-57.27753906 226.7765625 -58.16054688 226.725 -59.0703125 226.671875 C-64.84472705 227.93011319 -68.56857905 231.27885901 -72.03979492 235.97900391 C-74.12183866 239.23446815 -76.08707669 242.5455045 -78.01953125 245.890625 C-78.75637644 247.13756847 -79.4946895 248.38364555 -80.234375 249.62890625 C-82.15671603 252.87455194 -84.05908482 256.13140891 -85.95526123 259.39239502 C-87.75155992 262.47833906 -89.5598674 265.55722127 -91.3671875 268.63671875 C-93.48474153 272.24696577 -95.60036549 275.85830095 -97.70922852 279.47363281 C-102.87996183 288.33070107 -108.16742194 297.11131623 -113.50976562 305.86572266 C-119.27240973 315.31123959 -124.94726136 324.80581508 -130.58203125 334.328125 C-136.64576233 344.5744566 -142.76160826 354.78586203 -148.95703125 364.953125 C-155.47927448 375.65946978 -161.89617883 386.42333646 -168.25488281 397.22753906 C-179.33345689 416.02736412 -190.50214859 434.77028871 -201.8671875 453.3984375 C-204.42645951 457.59528356 -206.96930951 461.80091917 -209.49047852 466.02075195 C-211.006459 468.55746903 -212.52774339 471.09098751 -214.04925537 473.62438965 C-214.76446888 474.81855109 -215.47718977 476.01420995 -216.18707275 477.21154785 C-229.52411774 499.699071 -245.96968518 514.33733066 -270.81640625 522.75 C-291.63463485 528.06223764 -312.91245403 523.91085167 -331.26757812 513.43554688 C-349.22892831 502.4731297 -360.0446843 484.57642294 -365.828125 464.7734375 C-369.78163469 447.26893254 -367.60538192 428.7132743 -359.4921875 412.80859375 C-359.14386368 412.11982651 -358.79553986 411.43105927 -358.43666077 410.72142029 C-354.61089373 403.25714294 -350.34944928 396.07010196 -346.01953125 388.890625 C-345.17917211 387.48728767 -344.33933797 386.08363583 -343.5 384.6796875 C-341.41634546 381.19734785 -339.32630072 377.71890256 -337.23358154 374.24200439 C-335.5462676 371.4376845 -333.86301376 368.63093363 -332.1796875 365.82421875 C-330.38190212 362.82718457 -328.58348576 359.83054386 -326.7824707 356.83544922 C-322.13208271 349.09780805 -317.52409608 341.33562498 -312.92315674 333.56854248 C-306.41135558 322.57609923 -299.85454898 311.6140783 -293.20703125 300.703125 C-286.68499722 289.99665101 -280.26788559 279.2329168 -273.90917969 268.42871094 C-270.2272554 262.18065664 -266.53159934 255.94074531 -262.83203125 249.703125 C-262.22370453 248.67741394 -262.22370453 248.67741394 -261.60308838 247.63098145 C-255.3043217 237.01638737 -248.92484781 226.45387059 -242.50146484 215.91430664 C-236.26407381 205.66942414 -230.14023761 195.35857309 -224.02734375 185.0390625 C-218.64343175 175.95092383 -213.22476491 166.88453991 -207.78027344 157.83251953 C-203.13132573 150.09543082 -198.52347776 142.33458117 -193.92315674 134.56854248 C-187.41135558 123.57609923 -180.85454898 112.6140783 -174.20703125 101.703125 C-167.69114914 91.00674991 -161.27963273 80.25339137 -154.92675781 69.45947266 C-148.01511776 57.72724722 -141.0701921 46.01493848 -134.08203125 34.328125 C-133.10508301 32.69327148 -133.10508301 32.69327148 -132.10839844 31.02539062 C-118.29083981 7.99860384 -103.03770999 -11.62102536 -76.08203125 -19.671875 C-47.85549381 -26.52227989 -22.15377868 -17.78952585 0 0 Z " fill="#F9F9F9" transform="translate(838.08203125,1267.671875)"/>
<path d="M0 0 C1.10335693 0.31710937 1.10335693 0.31710937 2.22900391 0.640625 C22.73767472 6.65638519 41.6019178 16.02958078 53 35 C58.73209297 45.87664642 61.21950771 57.02236514 57.8125 69.1875 C50.77397733 89.29756476 36.52729647 101.46973945 18 111 C17.33935547 111.34111816 16.67871094 111.68223633 15.99804688 112.03369141 C0.57864029 119.81954887 -15.90489868 124.81655017 -32.28271484 130.13769531 C-68.08571483 141.78226488 -103.76091499 153.73602559 -139 167 C-139.66233643 167.24907104 -140.32467285 167.49814209 -141.00708008 167.75476074 C-149.04173901 170.78274399 -157.02388836 173.92976484 -164.97369385 177.17370605 C-167.21759655 178.08873226 -169.46310392 178.99976808 -171.70849609 179.91113281 C-216.23116138 198.02111077 -259.74951324 218.24372636 -301 243 C-301.82322754 243.49097168 -302.64645508 243.98194336 -303.49462891 244.48779297 C-325.93518739 257.88921493 -347.66595764 272.5638977 -368 289 C-368.94230469 289.75925781 -369.88460938 290.51851562 -370.85546875 291.30078125 C-373.58419288 293.51762351 -376.29571299 295.75342024 -379 298 C-379.75531006 298.62575928 -379.75531006 298.62575928 -380.52587891 299.26416016 C-391.84260667 308.65937647 -402.69924042 318.49593595 -413 329 C-415.72653863 331.74044954 -418.46974402 334.46215368 -421.234375 337.1640625 C-427.54408242 343.3586423 -433.52141361 349.56830916 -439.0078125 356.51171875 C-440.844671 358.80599104 -442.75905646 360.96470235 -444.75 363.125 C-450.95761055 370.04556384 -456.43701752 377.56103595 -462 385 C-462.83120361 386.10190674 -462.83120361 386.10190674 -463.67919922 387.22607422 C-486.90997025 418.10708446 -501.19063275 453.59166781 -516 489 C-518.74709234 495.56372015 -521.49590899 502.12671296 -524.25 508.6875 C-524.58079559 509.4755603 -524.91159119 510.26362061 -525.25241089 511.07556152 C-531.59256443 526.16348247 -538.17637551 541.12412702 -545 556 C-545.43473633 556.95600098 -545.86947266 557.91200195 -546.31738281 558.89697266 C-552.77243777 573.05230947 -560.12092222 586.58848304 -568 600 C-568.4434375 600.7621582 -568.886875 601.52431641 -569.34375 602.30957031 C-579.92057918 620.38107454 -593.36543705 638.77371545 -612 649 C-612.61875 649.3609375 -613.2375 649.721875 -613.875 650.09375 C-620.99847408 653.52828215 -631.3987838 653.58107816 -638.96679688 651.44482422 C-658.13128605 644.25059966 -673.30385703 626.51207782 -681.72265625 608.37890625 C-707.28775886 550.02514623 -688.31317967 481.25342962 -666.65234375 424.671875 C-655.25324651 395.60651553 -641.38226568 367.15704056 -626 340 C-625.42137207 338.97310059 -624.84274414 337.94620117 -624.24658203 336.88818359 C-615.62293499 321.61967372 -606.58964222 306.68012255 -597 292 C-596.48872559 291.21189941 -595.97745117 290.42379883 -595.45068359 289.61181641 C-585.1681572 273.78508554 -574.20103581 258.41152542 -562 244 C-561.13096145 242.95748863 -560.26250152 241.91449472 -559.39453125 240.87109375 C-553.96493414 234.36967505 -548.37596269 228.04702634 -542.6171875 221.8359375 C-540.21231237 219.23005789 -537.85209493 216.59093093 -535.5 213.9375 C-528.70724902 206.37919747 -521.55910244 199.20898989 -513.828125 192.609375 C-511.97062012 190.97413566 -510.23393991 189.26518207 -508.5 187.5 C-504.83715365 183.78798793 -500.9589256 180.39154334 -497 177 C-495.90992247 176.057562 -494.82009893 175.11483018 -493.73046875 174.171875 C-486.93264841 168.30128482 -480.08308461 162.52612174 -473 157 C-472.06414062 156.2678125 -471.12828125 155.535625 -470.1640625 154.78125 C-466.79236165 152.16542163 -463.40134983 149.57707216 -460 147 C-459.3395166 146.49758789 -458.6790332 145.99517578 -457.99853516 145.47753906 C-422.1467271 118.30371564 -383.32345346 94.96586985 -343.23583984 74.64355469 C-340.15701992 73.07975389 -337.08763857 71.49875087 -334.01953125 69.9140625 C-318.32778449 61.86748378 -302.27382196 54.76946582 -286 48 C-284.31559814 47.29858887 -284.31559814 47.29858887 -282.59716797 46.58300781 C-267.52845036 40.36758131 -252.22985084 34.89994702 -236.8125 29.625 C-235.9513559 29.32981476 -235.09021179 29.03462952 -234.20297241 28.73049927 C-222.88135813 24.86102171 -211.51285134 21.25692386 -200 18 C-198.80995361 17.66210449 -197.61990723 17.32420898 -196.39379883 16.97607422 C-170.54423845 9.73447243 -144.47029986 4.12204886 -118 -0.3125 C-117.26730896 -0.43578674 -116.53461792 -0.55907349 -115.77972412 -0.68609619 C-102.29063924 -2.93903486 -88.67483121 -4.99606341 -75 -5.625 C-74.23204102 -5.66149658 -73.46408203 -5.69799316 -72.67285156 -5.7355957 C-48.32552612 -6.76330507 -23.56454906 -6.88886325 0 0 Z " fill="#C37DCF" transform="translate(1064,290)"/>
</svg>
